<mxfile host="app.diagrams.net" modified="2023-09-11T11:56:34.890Z" agent="5.0 (Windows NT 10.0; Win64; x64) AppleWebKit/537.36 (KHTML, like Gecko) Chrome/111.0.0.0 Safari/537.36" version="20.6.0" etag="4L1lZgVXa5W_vZeoGdYt" type="github">
  <diagram id="Hq-6NygSp6bjwozcnX83" name="第 1 页">
    <mxGraphModel dx="1829" dy="1004" grid="1" gridSize="10" guides="1" tooltips="1" connect="1" arrows="1" fold="1" page="1" pageScale="1" pageWidth="2339" pageHeight="3300" math="0" shadow="0">
      <root>
        <mxCell id="0" />
        <mxCell id="1" parent="0" />
        <mxCell id="XKPbk1zgHCBaFrgcPbgQ-1" value="" style="shape=table;startSize=0;container=1;collapsible=0;childLayout=tableLayout;" vertex="1" parent="1">
          <mxGeometry x="810" y="430" width="390" height="390" as="geometry" />
        </mxCell>
        <mxCell id="XKPbk1zgHCBaFrgcPbgQ-2" value="" style="shape=tableRow;horizontal=0;startSize=0;swimlaneHead=0;swimlaneBody=0;top=0;left=0;bottom=0;right=0;collapsible=0;dropTarget=0;fillColor=none;points=[[0,0.5],[1,0.5]];portConstraint=eastwest;" vertex="1" parent="XKPbk1zgHCBaFrgcPbgQ-1">
          <mxGeometry width="390" height="98" as="geometry" />
        </mxCell>
        <mxCell id="XKPbk1zgHCBaFrgcPbgQ-3" value="1" style="shape=partialRectangle;html=1;whiteSpace=wrap;connectable=0;overflow=hidden;fillColor=none;top=0;left=0;bottom=0;right=0;pointerEvents=1;" vertex="1" parent="XKPbk1zgHCBaFrgcPbgQ-2">
          <mxGeometry width="98" height="98" as="geometry">
            <mxRectangle width="98" height="98" as="alternateBounds" />
          </mxGeometry>
        </mxCell>
        <mxCell id="XKPbk1zgHCBaFrgcPbgQ-4" value="2" style="shape=partialRectangle;html=1;whiteSpace=wrap;connectable=0;overflow=hidden;fillColor=none;top=0;left=0;bottom=0;right=0;pointerEvents=1;" vertex="1" parent="XKPbk1zgHCBaFrgcPbgQ-2">
          <mxGeometry x="98" width="97" height="98" as="geometry">
            <mxRectangle width="97" height="98" as="alternateBounds" />
          </mxGeometry>
        </mxCell>
        <mxCell id="XKPbk1zgHCBaFrgcPbgQ-5" value="3" style="shape=partialRectangle;html=1;whiteSpace=wrap;connectable=0;overflow=hidden;fillColor=#FF792B;top=0;left=0;bottom=0;right=0;pointerEvents=1;strokeWidth=1;" vertex="1" parent="XKPbk1zgHCBaFrgcPbgQ-2">
          <mxGeometry x="195" width="98" height="98" as="geometry">
            <mxRectangle width="98" height="98" as="alternateBounds" />
          </mxGeometry>
        </mxCell>
        <mxCell id="XKPbk1zgHCBaFrgcPbgQ-6" value="4" style="shape=partialRectangle;html=1;whiteSpace=wrap;connectable=0;overflow=hidden;fillColor=#FF792B;top=0;left=0;bottom=0;right=0;pointerEvents=1;" vertex="1" parent="XKPbk1zgHCBaFrgcPbgQ-2">
          <mxGeometry x="293" width="97" height="98" as="geometry">
            <mxRectangle width="97" height="98" as="alternateBounds" />
          </mxGeometry>
        </mxCell>
        <mxCell id="XKPbk1zgHCBaFrgcPbgQ-7" value="" style="shape=tableRow;horizontal=0;startSize=0;swimlaneHead=0;swimlaneBody=0;top=0;left=0;bottom=0;right=0;collapsible=0;dropTarget=0;fillColor=none;points=[[0,0.5],[1,0.5]];portConstraint=eastwest;" vertex="1" parent="XKPbk1zgHCBaFrgcPbgQ-1">
          <mxGeometry y="98" width="390" height="97" as="geometry" />
        </mxCell>
        <mxCell id="XKPbk1zgHCBaFrgcPbgQ-8" value="5" style="shape=partialRectangle;html=1;whiteSpace=wrap;connectable=0;overflow=hidden;fillColor=none;top=0;left=0;bottom=0;right=0;pointerEvents=1;" vertex="1" parent="XKPbk1zgHCBaFrgcPbgQ-7">
          <mxGeometry width="98" height="97" as="geometry">
            <mxRectangle width="98" height="97" as="alternateBounds" />
          </mxGeometry>
        </mxCell>
        <mxCell id="XKPbk1zgHCBaFrgcPbgQ-9" value="6" style="shape=partialRectangle;html=1;whiteSpace=wrap;connectable=0;overflow=hidden;fillColor=none;top=0;left=0;bottom=0;right=0;pointerEvents=1;" vertex="1" parent="XKPbk1zgHCBaFrgcPbgQ-7">
          <mxGeometry x="98" width="97" height="97" as="geometry">
            <mxRectangle width="97" height="97" as="alternateBounds" />
          </mxGeometry>
        </mxCell>
        <mxCell id="XKPbk1zgHCBaFrgcPbgQ-10" value="7" style="shape=partialRectangle;html=1;whiteSpace=wrap;connectable=0;overflow=hidden;fillColor=#FF792B;top=0;left=0;bottom=0;right=0;pointerEvents=1;" vertex="1" parent="XKPbk1zgHCBaFrgcPbgQ-7">
          <mxGeometry x="195" width="98" height="97" as="geometry">
            <mxRectangle width="98" height="97" as="alternateBounds" />
          </mxGeometry>
        </mxCell>
        <mxCell id="XKPbk1zgHCBaFrgcPbgQ-11" value="8" style="shape=partialRectangle;html=1;whiteSpace=wrap;connectable=0;overflow=hidden;fillColor=#FF792B;top=0;left=0;bottom=0;right=0;pointerEvents=1;" vertex="1" parent="XKPbk1zgHCBaFrgcPbgQ-7">
          <mxGeometry x="293" width="97" height="97" as="geometry">
            <mxRectangle width="97" height="97" as="alternateBounds" />
          </mxGeometry>
        </mxCell>
        <mxCell id="XKPbk1zgHCBaFrgcPbgQ-12" value="" style="shape=tableRow;horizontal=0;startSize=0;swimlaneHead=0;swimlaneBody=0;top=0;left=0;bottom=0;right=0;collapsible=0;dropTarget=0;fillColor=none;points=[[0,0.5],[1,0.5]];portConstraint=eastwest;" vertex="1" parent="XKPbk1zgHCBaFrgcPbgQ-1">
          <mxGeometry y="195" width="390" height="98" as="geometry" />
        </mxCell>
        <mxCell id="XKPbk1zgHCBaFrgcPbgQ-13" value="9" style="shape=partialRectangle;html=1;whiteSpace=wrap;connectable=0;overflow=hidden;fillColor=none;top=0;left=0;bottom=0;right=0;pointerEvents=1;" vertex="1" parent="XKPbk1zgHCBaFrgcPbgQ-12">
          <mxGeometry width="98" height="98" as="geometry">
            <mxRectangle width="98" height="98" as="alternateBounds" />
          </mxGeometry>
        </mxCell>
        <mxCell id="XKPbk1zgHCBaFrgcPbgQ-14" value="10" style="shape=partialRectangle;html=1;whiteSpace=wrap;connectable=0;overflow=hidden;fillColor=none;top=0;left=0;bottom=0;right=0;pointerEvents=1;" vertex="1" parent="XKPbk1zgHCBaFrgcPbgQ-12">
          <mxGeometry x="98" width="97" height="98" as="geometry">
            <mxRectangle width="97" height="98" as="alternateBounds" />
          </mxGeometry>
        </mxCell>
        <mxCell id="XKPbk1zgHCBaFrgcPbgQ-15" value="11" style="shape=partialRectangle;html=1;whiteSpace=wrap;connectable=0;overflow=hidden;fillColor=none;top=0;left=0;bottom=0;right=0;pointerEvents=1;" vertex="1" parent="XKPbk1zgHCBaFrgcPbgQ-12">
          <mxGeometry x="195" width="98" height="98" as="geometry">
            <mxRectangle width="98" height="98" as="alternateBounds" />
          </mxGeometry>
        </mxCell>
        <mxCell id="XKPbk1zgHCBaFrgcPbgQ-16" value="12" style="shape=partialRectangle;html=1;whiteSpace=wrap;connectable=0;overflow=hidden;fillColor=none;top=0;left=0;bottom=0;right=0;pointerEvents=1;" vertex="1" parent="XKPbk1zgHCBaFrgcPbgQ-12">
          <mxGeometry x="293" width="97" height="98" as="geometry">
            <mxRectangle width="97" height="98" as="alternateBounds" />
          </mxGeometry>
        </mxCell>
        <mxCell id="XKPbk1zgHCBaFrgcPbgQ-17" value="" style="shape=tableRow;horizontal=0;startSize=0;swimlaneHead=0;swimlaneBody=0;top=0;left=0;bottom=0;right=0;collapsible=0;dropTarget=0;fillColor=none;points=[[0,0.5],[1,0.5]];portConstraint=eastwest;" vertex="1" parent="XKPbk1zgHCBaFrgcPbgQ-1">
          <mxGeometry y="293" width="390" height="97" as="geometry" />
        </mxCell>
        <mxCell id="XKPbk1zgHCBaFrgcPbgQ-18" value="13" style="shape=partialRectangle;html=1;whiteSpace=wrap;connectable=0;overflow=hidden;fillColor=none;top=0;left=0;bottom=0;right=0;pointerEvents=1;" vertex="1" parent="XKPbk1zgHCBaFrgcPbgQ-17">
          <mxGeometry width="98" height="97" as="geometry">
            <mxRectangle width="98" height="97" as="alternateBounds" />
          </mxGeometry>
        </mxCell>
        <mxCell id="XKPbk1zgHCBaFrgcPbgQ-19" value="14" style="shape=partialRectangle;html=1;whiteSpace=wrap;connectable=0;overflow=hidden;fillColor=none;top=0;left=0;bottom=0;right=0;pointerEvents=1;" vertex="1" parent="XKPbk1zgHCBaFrgcPbgQ-17">
          <mxGeometry x="98" width="97" height="97" as="geometry">
            <mxRectangle width="97" height="97" as="alternateBounds" />
          </mxGeometry>
        </mxCell>
        <mxCell id="XKPbk1zgHCBaFrgcPbgQ-20" value="15" style="shape=partialRectangle;html=1;whiteSpace=wrap;connectable=0;overflow=hidden;fillColor=none;top=0;left=0;bottom=0;right=0;pointerEvents=1;" vertex="1" parent="XKPbk1zgHCBaFrgcPbgQ-17">
          <mxGeometry x="195" width="98" height="97" as="geometry">
            <mxRectangle width="98" height="97" as="alternateBounds" />
          </mxGeometry>
        </mxCell>
        <mxCell id="XKPbk1zgHCBaFrgcPbgQ-21" value="16" style="shape=partialRectangle;html=1;whiteSpace=wrap;connectable=0;overflow=hidden;fillColor=none;top=0;left=0;bottom=0;right=0;pointerEvents=1;" vertex="1" parent="XKPbk1zgHCBaFrgcPbgQ-17">
          <mxGeometry x="293" width="97" height="97" as="geometry">
            <mxRectangle width="97" height="97" as="alternateBounds" />
          </mxGeometry>
        </mxCell>
        <mxCell id="XKPbk1zgHCBaFrgcPbgQ-23" value="Character" style="shape=umlActor;verticalLabelPosition=bottom;verticalAlign=top;html=1;outlineConnect=0;strokeWidth=1;fillColor=#FF792B;" vertex="1" parent="1">
          <mxGeometry x="1010" y="560" width="30" height="60" as="geometry" />
        </mxCell>
      </root>
    </mxGraphModel>
  </diagram>
</mxfile>
